<svg xmlns="http://www.w3.org/2000/svg" height="48" viewBox="0 -960 960 960" width="48"><path d="M544-59v-142l226-223q9.004-11.294 22.699-16.647Q806.393-446 820.087-446q14.939 0 28.41 6T873-424l37 38q10.882 10.151 15.941 23.53Q931-349.091 931-335.712q0 14.712-6 28.571-6 13.86-15.91 25.141L686-59H544Zm313-277-37-37 37 37ZM617-133h38l118-118.767-18-19.12L736-289 617-171.239V-133ZM217-59q-37.175 0-64.087-26.912Q126-112.825 126-150v-660q0-37.588 26.913-64.794Q179.825-902 217-902h342l251 250v108h-92v-50H501v-216H217v660h267v91H217Zm296-421Zm242 209-19-18 37 37-18-19Z"/></svg>