<svg xmlns="http://www.w3.org/2000/svg" height="48" viewBox="0 -960 960 960" width="48"><path d="M290-292h56l256-256.265L546-606 290-348.735V-292Zm330-273 37-38q7-6 7.5-15.364.5-9.363-7.5-16.636l-25-25q-7.273-8-16-7.5t-15 7.5l-37 37 56 58ZM190-98q-38.175 0-64.588-27.112Q99-152.225 99-189v-581q0-37.188 26.412-64.594Q151.825-862 190-862h182q11-34 39.5-57t68.5-23q40 0 68.5 23t39.5 57h182q38.588 0 65.294 27.406Q862-807.188 862-770v581q0 36.775-26.706 63.888Q808.588-98 770-98H190Zm0-91h580v-581H190v581Zm290-600q17.467 0 29.233-11.767Q521-812.533 521-830t-11.767-29.233Q497.467-871 480-871t-29.233 11.767Q439-847.467 439-830t11.767 29.233Q462.533-789 480-789ZM190-189v-581 581Z"/></svg>